<svg width="346" height="130" viewBox="0 0 346 130" fill="none" xmlns="http://www.w3.org/2000/svg">
<path d="M29.6695 83H21.4308L33.9841 46.6364H43.8918L56.4273 83H48.1887L39.08 54.946H38.7959L29.6695 83ZM29.1546 68.7067H48.6148V74.7081H29.1546V68.7067ZM74.8399 55.7273V61.4091H58.0075V55.7273H74.8399ZM61.8605 83V53.7564C61.8605 51.7796 62.2452 50.1401 63.0146 48.8381C63.7959 47.536 64.8612 46.5594 66.2107 45.9084C67.5601 45.2573 69.093 44.9318 70.8094 44.9318C71.9694 44.9318 73.0289 45.0206 73.9877 45.1982C74.9583 45.3757 75.6804 45.5355 76.1539 45.6776L74.8044 51.3594C74.5085 51.2647 74.1415 51.1759 73.7036 51.093C73.2774 51.0102 72.8395 50.9688 72.3896 50.9688C71.277 50.9688 70.5016 51.2292 70.0637 51.75C69.6257 52.259 69.4067 52.9751 69.4067 53.8984V83H61.8605ZM93.9672 55.7273V61.4091H77.5432V55.7273H93.9672ZM81.2719 49.1932H88.8358V74.6193C88.8358 75.3177 88.9424 75.8622 89.1555 76.2528C89.3685 76.6316 89.6644 76.898 90.0432 77.0518C90.4339 77.2057 90.8837 77.2827 91.3927 77.2827C91.7478 77.2827 92.1029 77.2531 92.458 77.1939C92.8131 77.1229 93.0854 77.0696 93.2748 77.0341L94.4644 82.6626C94.0856 82.781 93.5529 82.9171 92.8664 83.071C92.1798 83.2367 91.3453 83.3374 90.3628 83.3729C88.5399 83.4439 86.9419 83.2012 85.5688 82.6449C84.2075 82.0885 83.1481 81.2244 82.3905 80.0526C81.633 78.8807 81.2601 77.401 81.2719 75.6136V49.1932ZM111.03 83.5327C108.225 83.5327 105.81 82.9645 103.786 81.8281C101.774 80.6799 100.223 79.0582 99.1341 76.9631C98.0451 74.8561 97.5006 72.3643 97.5006 69.4879C97.5006 66.6825 98.0451 64.2204 99.1341 62.1016C100.223 59.9827 101.756 58.3314 103.733 57.1477C105.722 55.964 108.053 55.3722 110.729 55.3722C112.528 55.3722 114.203 55.6622 115.753 56.2422C117.316 56.8104 118.677 57.6686 119.837 58.8168C121.009 59.965 121.921 61.4091 122.572 63.1491C123.223 64.8774 123.548 66.9015 123.548 69.2216V71.299H100.519V66.6115H116.428C116.428 65.5225 116.191 64.5578 115.718 63.7173C115.244 62.8769 114.588 62.2199 113.747 61.7464C112.918 61.2611 111.954 61.0185 110.853 61.0185C109.705 61.0185 108.687 61.2848 107.799 61.8175C106.923 62.3383 106.236 63.0426 105.739 63.9304C105.242 64.8063 104.988 65.7829 104.976 66.8601V71.3168C104.976 72.6662 105.224 73.8321 105.722 74.8146C106.23 75.7971 106.947 76.5547 107.87 77.0874C108.793 77.62 109.888 77.8864 111.155 77.8864C111.995 77.8864 112.765 77.768 113.463 77.5312C114.161 77.2945 114.759 76.9394 115.256 76.4659C115.753 75.9924 116.132 75.4124 116.393 74.7259L123.388 75.1875C123.033 76.8684 122.305 78.3362 121.204 79.5909C120.115 80.8338 118.707 81.8045 116.979 82.5028C115.262 83.1894 113.28 83.5327 111.03 83.5327ZM128.484 83V55.7273H135.817V60.4858H136.101C136.599 58.7931 137.433 57.5147 138.605 56.6506C139.777 55.7746 141.126 55.3366 142.653 55.3366C143.032 55.3366 143.44 55.3603 143.878 55.4077C144.316 55.455 144.701 55.5201 145.033 55.603V62.3146C144.677 62.2081 144.186 62.1134 143.559 62.0305C142.931 61.9477 142.357 61.9062 141.837 61.9062C140.724 61.9062 139.73 62.1489 138.854 62.6342C137.989 63.1077 137.303 63.7706 136.794 64.6229C136.297 65.4751 136.048 66.4576 136.048 67.5703V83H128.484ZM180.384 57.0945C180.242 55.6622 179.632 54.5495 178.555 53.7564C177.478 52.9633 176.016 52.5668 174.17 52.5668C172.915 52.5668 171.855 52.7443 170.991 53.0994C170.127 53.4427 169.464 53.9221 169.003 54.5376C168.553 55.1532 168.328 55.8516 168.328 56.6328C168.304 57.2839 168.44 57.852 168.736 58.3374C169.044 58.8227 169.464 59.2429 169.997 59.598C170.53 59.9413 171.145 60.2431 171.844 60.5036C172.542 60.7521 173.288 60.9652 174.081 61.1428L177.348 61.924C178.934 62.2791 180.39 62.7526 181.716 63.3445C183.042 63.9363 184.19 64.6643 185.16 65.5284C186.131 66.3925 186.883 67.4105 187.415 68.5824C187.96 69.7543 188.238 71.0978 188.25 72.6129C188.238 74.8383 187.67 76.7678 186.545 78.4013C185.433 80.023 183.823 81.2836 181.716 82.1832C179.621 83.071 177.093 83.5149 174.134 83.5149C171.199 83.5149 168.642 83.0651 166.464 82.1655C164.297 81.2659 162.605 79.9342 161.386 78.1705C160.178 76.3949 159.545 74.1991 159.486 71.5831H166.925C167.008 72.8023 167.357 73.8203 167.973 74.6371C168.6 75.442 169.435 76.0516 170.476 76.4659C171.53 76.8684 172.72 77.0696 174.045 77.0696C175.347 77.0696 176.478 76.8802 177.437 76.5014C178.407 76.1226 179.159 75.5959 179.692 74.9212C180.224 74.2464 180.491 73.4711 180.491 72.5952C180.491 71.7784 180.248 71.0919 179.763 70.5355C179.289 69.9792 178.591 69.5057 177.668 69.1151C176.756 68.7244 175.637 68.3693 174.312 68.0497L170.352 67.0554C167.286 66.3097 164.866 65.1437 163.09 63.5575C161.315 61.9714 160.433 59.8348 160.445 57.1477C160.433 54.946 161.019 53.0225 162.202 51.3771C163.398 49.7318 165.037 48.4474 167.121 47.5241C169.204 46.6009 171.571 46.1392 174.223 46.1392C176.922 46.1392 179.277 46.6009 181.29 47.5241C183.314 48.4474 184.888 49.7318 186.013 51.3771C187.137 53.0225 187.717 54.9283 187.753 57.0945H180.384ZM205.602 83.5327C202.808 83.5327 200.405 82.9408 198.393 81.7571C196.392 80.5616 194.854 78.9044 193.776 76.7855C192.711 74.6667 192.178 72.2282 192.178 69.4702C192.178 66.6766 192.717 64.2263 193.794 62.1193C194.883 60.0005 196.428 58.3492 198.428 57.1655C200.429 55.9699 202.808 55.3722 205.566 55.3722C207.945 55.3722 210.029 55.8042 211.816 56.6683C213.604 57.5324 215.018 58.7457 216.06 60.3082C217.101 61.8707 217.676 63.7055 217.782 65.8125H210.644C210.443 64.4512 209.91 63.3563 209.046 62.5277C208.194 61.6873 207.075 61.267 205.69 61.267C204.519 61.267 203.495 61.5866 202.619 62.2259C201.755 62.8532 201.08 63.7706 200.595 64.978C200.109 66.1854 199.867 67.6473 199.867 69.3636C199.867 71.1037 200.103 72.5833 200.577 73.8026C201.062 75.0218 201.743 75.951 202.619 76.5902C203.495 77.2294 204.519 77.549 205.69 77.549C206.555 77.549 207.33 77.3714 208.016 77.0163C208.715 76.6612 209.289 76.1463 209.739 75.4716C210.2 74.785 210.502 73.9624 210.644 73.0036H217.782C217.664 75.0869 217.095 76.9216 216.078 78.5078C215.071 80.0821 213.68 81.3132 211.905 82.201C210.129 83.0888 208.028 83.5327 205.602 83.5327ZM230.189 67.233V83H222.625V46.6364H229.976V60.5391H230.295C230.911 58.9292 231.905 57.6686 233.278 56.7571C234.651 55.8338 236.374 55.3722 238.445 55.3722C240.339 55.3722 241.99 55.7865 243.399 56.6151C244.82 57.4318 245.92 58.6096 246.702 60.1484C247.495 61.6754 247.885 63.5043 247.873 65.6349V83H240.31V66.9844C240.321 65.3035 239.895 63.9955 239.031 63.0604C238.179 62.1252 236.983 61.6577 235.445 61.6577C234.415 61.6577 233.503 61.8767 232.71 62.3146C231.929 62.7526 231.313 63.3918 230.864 64.2322C230.426 65.0608 230.201 66.0611 230.189 67.233ZM266.149 83.5327C263.39 83.5327 261.005 82.9467 258.993 81.7749C256.993 80.5911 255.448 78.9458 254.359 76.8388C253.27 74.7199 252.725 72.2637 252.725 69.4702C252.725 66.6529 253.27 64.1908 254.359 62.0838C255.448 59.965 256.993 58.3196 258.993 57.1477C261.005 55.964 263.39 55.3722 266.149 55.3722C268.907 55.3722 271.286 55.964 273.286 57.1477C275.299 58.3196 276.849 59.965 277.938 62.0838C279.027 64.1908 279.572 66.6529 279.572 69.4702C279.572 72.2637 279.027 74.7199 277.938 76.8388C276.849 78.9458 275.299 80.5911 273.286 81.7749C271.286 82.9467 268.907 83.5327 266.149 83.5327ZM266.184 77.6733C267.439 77.6733 268.486 77.3182 269.327 76.608C270.167 75.8859 270.801 74.9034 271.227 73.6605C271.665 72.4176 271.884 71.0031 271.884 69.4169C271.884 67.8307 271.665 66.4162 271.227 65.1733C270.801 63.9304 270.167 62.9479 269.327 62.2259C268.486 61.5038 267.439 61.1428 266.184 61.1428C264.917 61.1428 263.852 61.5038 262.988 62.2259C262.136 62.9479 261.491 63.9304 261.053 65.1733C260.627 66.4162 260.413 67.8307 260.413 69.4169C260.413 71.0031 260.627 72.4176 261.053 73.6605C261.491 74.9034 262.136 75.8859 262.988 76.608C263.852 77.3182 264.917 77.6733 266.184 77.6733ZM296.813 83.5327C294.055 83.5327 291.669 82.9467 289.657 81.7749C287.657 80.5911 286.112 78.9458 285.023 76.8388C283.934 74.7199 283.389 72.2637 283.389 69.4702C283.389 66.6529 283.934 64.1908 285.023 62.0838C286.112 59.965 287.657 58.3196 289.657 57.1477C291.669 55.964 294.055 55.3722 296.813 55.3722C299.571 55.3722 301.95 55.964 303.95 57.1477C305.963 58.3196 307.513 59.965 308.602 62.0838C309.691 64.1908 310.236 66.6529 310.236 69.4702C310.236 72.2637 309.691 74.7199 308.602 76.8388C307.513 78.9458 305.963 80.5911 303.95 81.7749C301.95 82.9467 299.571 83.5327 296.813 83.5327ZM296.848 77.6733C298.103 77.6733 299.15 77.3182 299.991 76.608C300.831 75.8859 301.465 74.9034 301.891 73.6605C302.329 72.4176 302.548 71.0031 302.548 69.4169C302.548 67.8307 302.329 66.4162 301.891 65.1733C301.465 63.9304 300.831 62.9479 299.991 62.2259C299.15 61.5038 298.103 61.1428 296.848 61.1428C295.582 61.1428 294.516 61.5038 293.652 62.2259C292.8 62.9479 292.155 63.9304 291.717 65.1733C291.291 66.4162 291.078 67.8307 291.078 69.4169C291.078 71.0031 291.291 72.4176 291.717 73.6605C292.155 74.9034 292.8 75.8859 293.652 76.608C294.516 77.3182 295.582 77.6733 296.848 77.6733ZM322.718 46.6364V83H315.154V46.6364H322.718Z" fill="#12307D"/>
<g clip-path="url(#clip0_81_6)">
<path d="M236.655 32.8587C234.562 32.8587 232.833 31.5 230.201 31.5C229.226 31.5 228.353 31.6712 227.543 31.9692C227.655 31.6761 227.703 31.3622 227.683 31.0489C227.614 29.9381 226.703 29.0471 225.591 29.0019C224.342 28.951 223.312 29.949 223.312 31.1875C223.312 31.9307 223.683 32.5869 224.25 32.9822V48.0625C224.25 48.5803 224.67 49 225.188 49H225.812C226.33 49 226.75 48.5803 226.75 48.0625V44.375C227.856 43.9037 229.234 43.5108 231.22 43.5108C233.313 43.5108 235.042 44.8696 237.674 44.8696C239.556 44.8696 241.059 44.2331 242.459 43.2735C242.798 43.0411 243 42.6551 243 42.2439V32.7478C243 31.834 242.052 31.2295 241.223 31.6144C239.882 32.2374 238.237 32.8587 236.655 32.8587Z" fill="#12307D"/>
</g>
<defs>
<clipPath id="clip0_81_6">
<rect width="20" height="20" fill="white" transform="translate(223 29)"/>
</clipPath>
</defs>
</svg>
