<svg width="60" height="60" viewBox="0 0 60 60" fill="none" xmlns="http://www.w3.org/2000/svg">
<g clip-path="url(#clip0_23_53)">
<path d="M30 60C46.5685 60 60 46.5685 60 30C60 13.4315 46.5685 0 30 0C13.4315 0 0 13.4315 0 30C0 46.5685 13.4315 60 30 60Z" fill="#FFE227"/>
<path d="M29.9344 11.6301C24.6638 11.6439 19.6151 13.3153 15.8943 16.278C12.1736 19.2407 10.0844 23.2532 10.0844 27.4362C10.0844 30.0631 10.9094 32.6484 12.4846 34.9587C14.0598 37.2689 16.3357 39.2312 19.1065 40.668C18.1974 43.5064 16.8705 47.9457 17.3517 48.3375C17.8633 48.754 23.354 45.0737 26.39 42.9806C27.5808 43.1549 28.7891 43.2426 30 43.2427C32.6154 43.2427 35.2052 42.8338 37.6215 42.0395C40.0378 41.2451 42.2333 40.0808 44.0826 38.613C45.9319 37.1453 47.3989 35.4028 48.3997 33.4851C49.4006 31.5673 49.9157 29.5119 49.9156 27.4362C49.9156 23.2442 47.8174 19.2239 44.0825 16.2597C40.3475 13.2954 35.2819 11.6302 30 11.6301C29.9781 11.6301 29.9563 11.6301 29.9344 11.6301Z" fill="#1A1A1A"/>
<path d="M15.009 21.7725C14.3213 21.7725 13.7677 22.3261 13.7677 23.0138V23.0186C13.7677 23.7063 14.3213 24.2599 15.009 24.2599H16.9487V31.7248C16.9487 32.4138 17.5036 32.9684 18.1926 32.9684C18.8816 32.9684 19.4361 32.4138 19.4361 31.7248V24.2599H21.4302C22.1179 24.2599 22.6715 23.7063 22.6715 23.0186V23.0138C22.6715 22.3261 22.1179 21.7725 21.4302 21.7725H18.1926H15.009Z" fill="#FFE227"/>
<path d="M25.4216 21.7683C25.2921 21.7683 25.163 21.7856 25.038 21.8197C24.5943 21.8717 24.1949 22.1614 24.0229 22.6089L20.6853 31.2917C20.4381 31.9348 20.7569 32.6516 21.4001 32.8988C22.0432 33.1459 22.7599 32.8275 23.0071 32.1843L23.5128 30.8682H27.3844L27.8905 32.1843C28.1377 32.8275 28.8544 33.1459 29.4976 32.8988C30.1407 32.6516 30.4592 31.9348 30.212 31.2917L26.8747 22.6089C26.6925 22.1349 26.2552 21.8382 25.7803 21.8133C25.6631 21.7835 25.5426 21.7684 25.4216 21.7683ZM25.4488 25.8319L26.4285 28.3808H24.4691L25.4488 25.8319Z" fill="#FFE227"/>
<path d="M32.2257 21.7725C31.5237 21.7725 30.9588 22.3377 30.9588 23.0398V31.701C30.9588 32.4031 31.5237 32.9684 32.2257 32.9684H36.065C36.7671 32.9684 37.3324 32.4031 37.3324 31.701C37.3324 30.999 36.7671 30.4337 36.065 30.4337H33.4931V23.0398C33.4931 22.3377 32.9278 21.7725 32.2257 21.7725Z" fill="#FFE227"/>
<path d="M39.0674 21.7725C38.3653 21.7725 37.8001 22.3377 37.8001 23.0398V31.701C37.8001 32.4031 38.3653 32.9684 39.0674 32.9684C39.7695 32.9684 40.3344 32.4031 40.3344 31.701V29.0406C40.3475 29.0283 40.3612 29.0171 40.3738 29.0041L40.8159 28.5516L43.764 32.469C44.1862 33.03 44.9775 33.142 45.5385 32.7198C46.0995 32.2977 46.2111 31.5059 45.7889 30.9449L42.6075 26.7176L45.2866 23.9753C45.7772 23.4731 45.768 22.6735 45.2661 22.1825C44.7643 21.6916 43.9651 21.7008 43.4745 22.203L40.3344 25.4171V23.0398C40.3344 22.3377 39.7695 21.7725 39.0674 21.7725Z" fill="#FFE227"/>
</g>
<defs>
<clipPath id="clip0_23_53">
<rect width="60" height="60" fill="white"/>
</clipPath>
</defs>
</svg>
